<?xml version="1.0" encoding="UTF-8" standalone="no"?>
<!-- Created with Inkscape (http://www.inkscape.org/) -->

<svg
   version="1.1"
   id="svg798"
   width="2500"
   height="1957.3333"
   viewBox="0 0 2500 1957.3333"
   sodipodi:docname="drawing.svg"
   inkscape:version="1.1.2 (0a00cf5339, 2022-02-04)"
   xmlns:inkscape="http://www.inkscape.org/namespaces/inkscape"
   xmlns:sodipodi="http://sodipodi.sourceforge.net/DTD/sodipodi-0.dtd"
   xmlns="http://www.w3.org/2000/svg"
   xmlns:svg="http://www.w3.org/2000/svg">
  <defs
     id="defs802" />
  <sodipodi:namedview
     id="namedview800"
     pagecolor="#ffffff"
     bordercolor="#666666"
     borderopacity="1.0"
     inkscape:pageshadow="2"
     inkscape:pageopacity="0.0"
     inkscape:pagecheckerboard="0"
     showgrid="false"
     inkscape:zoom="0.29262084"
     inkscape:cx="1315.6958"
     inkscape:cy="984.20879"
     inkscape:window-width="1920"
     inkscape:window-height="1019"
     inkscape:window-x="1920"
     inkscape:window-y="0"
     inkscape:window-maximized="1"
     inkscape:current-layer="g804" />
  <g
     inkscape:groupmode="layer"
     inkscape:label="Image"
     id="g804">
    <path
       style="fill:#000000;stroke-width:1.33333"
       d="m 321.14589,1831.5916 c -3.40729,-2.4914 -2.1884,-6.2901 6.08507,-18.9637 9.55944,-14.6436 19.97107,-28.1395 42.69788,-55.346 101.98551,-122.0883 255.91796,-273.5059 403.15891,-396.5725 36.5989,-30.59 73.5222,-62.1676 91.7544,-78.4704 l 11.7544,-10.5104 -4.4191,-2.6875 c -2.4305,-1.478 -12.22,-6.2511 -21.7544,-10.6068 -49.2019,-22.4773 -58.4551,-29.5045 -119.6794,-90.8888 -28.1237,-28.1972 -43.6227,-42.6966 -51.23054,-47.9268 -13.69551,-9.4152 -28.99111,-22.1319 -57.42659,-47.7442 C 563.70583,1019.2899 497.27028,966.71488 434.421,923.36178 c -39.08643,-26.9616 -70.58731,-51.8881 -131.33333,-103.9235 -63.00308,-53.9687 -114.55412,-100.7421 -156.50958,-142.0044 -31.54039,-31.0194 -44.82376,-45.8265 -44.82376,-49.9656 0,-1.6934 1.49644,-3.7264 3.70173,-5.0291 13.74419,-8.1189 69.01078,-23.1697 114.29827,-31.127 28.01351,-4.9221 51.81028,-6.3481 77.64708,-4.6529 100.73982,6.6097 229.6525,47.0614 431.89524,135.5248 58.7341,25.6911 107.5611,45.245 109.6914,43.9284 1.7543,-1.0842 -1.0514,-16.4886 -8.5391,-46.883 -7.729,-31.3744 -12.6946,-56.5796 -12.6946,-64.4386 0,-10.1273 -11.8943,-43.7666 -24.1541,-68.3122 -14.686,-29.4032 -29.7422,-68.9466 -40.4954,-106.3564 -8.765,-30.4932 -18.9825,-59.3974 -31.4229,-88.89214 -34.1633,-80.99755 -69.77331,-192.57175 -82.7196,-259.17921 -2.92198,-15.03333 -6.83274,-34.073378 -8.69056,-42.311208 -4.81998,-21.37236 -2.72862,-25.3647 8.5016,-16.22933 12.1034,9.84567 91.78316,95.385588 157.03416,168.583588 52.5163,58.91233 74.8136,84.7759 129.2798,149.95694 114.83145,137.42166 180.12065,211.04746 292.04335,329.33326 59.0692,62.4275 74.2532,79.5494 95.7769,108 17.1623,22.6857 27.1087,39.33 46.8886,78.4633 15.7035,31.0683 31.9104,57.799 35.9937,59.3659 1.1867,0.4554 3.2248,0.2568 4.5291,-0.4412 4.3407,-2.3231 17.0973,-17.1321 28.3328,-32.8909 76.026,-106.6343 181.3056,-166.9144 278.0281,-159.1911 58.6132,4.6803 99.8251,21.9136 185.1392,77.418 31.1383,20.2583 44.1824,27.9407 55.6087,32.7515 15.2309,6.4126 23.6779,7.3282 78.9932,8.5621 120.3753,2.6851 270.1493,17.1692 330.3884,31.9506 32.5883,7.9965 24.8137,8.7321 -70.0748,6.6298 -132.4039,-2.9334 -251.6503,0.4681 -332.0461,9.4717 -28.8646,3.2326 -43.6666,5.9313 -51.6008,9.4077 -8.311,3.6416 -48.3218,44.1869 -81.4148,82.50262 -64.897,75.1385 -119.5819,131.9882 -173.929,180.814 -21.9168,19.6901 -36.771,32.1316 -70.6562,59.1795 -37.8696,30.2283 -79.3567,64.9405 -104.6364,87.5493 -47.527,42.5054 -65.2472,56.6281 -98.0303,78.1285 -85.586,56.1305 -185.1568,90.6624 -298.6941,103.5892 -20.8077,2.3691 -117.65005,8.0472 -137.57195,8.0661 l -6.9328,0.013 -20.397,28.3333 c -34.5385,47.9772 -53.3649,70.486 -91.0068,108.8079 -48.4936,49.3696 -89.2324,82.3904 -121.7887,98.7158 -29.25974,14.6723 -68.48677,26.8819 -95.30134,29.663 -25.26464,2.6202 -36.7268,-0.5736 -40.8397,-11.3799 -2.59246,-6.8115 -0.73705,-19.7559 5.94472,-41.4735 12.18395,-39.6013 13.5656,-44.5937 12.08255,-43.6594 -0.86673,0.546 -7.04196,4.7141 -13.72273,9.2624 -54.97352,37.4258 -178.71404,93.0525 -227.94902,102.4726 -12.39381,2.3714 -14.01838,2.3839 -17.09824,0.132 z"
       id="path906" />
  </g>
</svg>
